<svg xmlns="http://www.w3.org/2000/svg" xmlns:rdkit="http://www.rdkit.org/xml" xmlns:xlink="http://www.w3.org/1999/xlink" version="1.1" baseProfile="full" xml:space="preserve" width="400px" height="300px" viewBox="0 0 400 300">
<!-- END OF HEADER -->
<rect style="opacity:1.0;fill:#FFFFFF;stroke:none" width="400.0" height="300.0" x="0.0" y="0.0"> </rect>
<path class="bond-0 atom-0 atom-1" d="M 97.5,30.0 L 107.6,71.4 L 98.1,68.6 L 89.2,32.0 Z" style="fill:#FDE724;fill-rule:evenodd;fill-opacity:1;stroke:#FDE724;stroke-width:0.0px;stroke-linecap:butt;stroke-linejoin:miter;stroke-miterlimit:10;stroke-opacity:1;"/>
<path class="bond-1 atom-1 atom-2" d="M 98.1,68.6 L 107.6,71.4 L 78.5,99.1 L 69.0,96.3 Z" style="fill:#83D34B;fill-rule:evenodd;fill-opacity:1;stroke:#83D34B;stroke-width:0.0px;stroke-linecap:butt;stroke-linejoin:miter;stroke-miterlimit:10;stroke-opacity:1;"/>
<path class="bond-2 atom-2 atom-3" d="M 69.0,96.3 L 78.5,99.1 L 86.9,133.6 L 83.3,136.7 L 78.6,135.6 Z" style="fill:#29788E;fill-rule:evenodd;fill-opacity:1;stroke:#29788E;stroke-width:0.0px;stroke-linecap:butt;stroke-linejoin:miter;stroke-miterlimit:10;stroke-opacity:1;"/>
<path class="bond-3 atom-3 atom-4" d="M 78.6,135.6 L 83.3,136.7 L 84.5,141.8 L 62.5,167.7 L 52.0,166.9 Z" style="fill:#46307D;fill-rule:evenodd;fill-opacity:1;stroke:#46307D;stroke-width:0.0px;stroke-linecap:butt;stroke-linejoin:miter;stroke-miterlimit:10;stroke-opacity:1;"/>
<path class="bond-30 atom-3 atom-12" d="M 86.9,133.6 L 120.0,147.2 L 120.4,152.0 L 115.9,154.7 L 84.5,141.8 L 83.3,136.7 Z" style="fill:#472878;fill-rule:evenodd;fill-opacity:1;stroke:#472878;stroke-width:0.0px;stroke-linecap:butt;stroke-linejoin:miter;stroke-miterlimit:10;stroke-opacity:1;"/>
<path class="bond-4 atom-4 atom-5" d="M 52.0,166.9 L 62.5,167.7 L 80.3,196.5 L 78.3,201.4 L 73.7,202.1 Z" style="fill:#3E4888;fill-rule:evenodd;fill-opacity:1;stroke:#3E4888;stroke-width:0.0px;stroke-linecap:butt;stroke-linejoin:miter;stroke-miterlimit:10;stroke-opacity:1;"/>
<path class="bond-5 atom-5 atom-6" d="M 78.3,201.4 L 81.7,205.0 L 71.8,238.8 L 67.0,239.9 L 63.6,236.4 L 73.7,202.1 Z" style="fill:#481A6C;fill-rule:evenodd;fill-opacity:1;stroke:#481A6C;stroke-width:0.0px;stroke-linecap:butt;stroke-linejoin:miter;stroke-miterlimit:10;stroke-opacity:1;"/>
<path class="bond-32 atom-5 atom-11" d="M 113.3,188.5 L 117.3,192.0 L 115.9,196.7 L 81.7,205.0 L 78.3,201.4 L 80.3,196.5 Z" style="fill:#471265;fill-rule:evenodd;fill-opacity:1;stroke:#471265;stroke-width:0.0px;stroke-linecap:butt;stroke-linejoin:miter;stroke-miterlimit:10;stroke-opacity:1;"/>
<path class="bond-6 atom-6 atom-7" d="M 63.6,236.4 L 67.0,239.9 L 65.6,244.7 L 29.0,253.5 L 27.0,245.2 Z" style="fill:#481D6F;fill-rule:evenodd;fill-opacity:1;stroke:#481D6F;stroke-width:0.0px;stroke-linecap:butt;stroke-linejoin:miter;stroke-miterlimit:10;stroke-opacity:1;"/>
<path class="bond-7 atom-6 atom-8" d="M 71.8,238.8 L 96.1,264.2 L 93.3,273.7 L 65.6,244.7 L 67.0,239.9 Z" style="fill:#481D6F;fill-rule:evenodd;fill-opacity:1;stroke:#481D6F;stroke-width:0.0px;stroke-linecap:butt;stroke-linejoin:miter;stroke-miterlimit:10;stroke-opacity:1;"/>
<path class="bond-8 atom-8 atom-9" d="M 130.3,255.9 L 137.1,263.1 L 93.3,273.7 L 96.1,264.2 Z" style="fill:#3E4989;fill-rule:evenodd;fill-opacity:1;stroke:#3E4989;stroke-width:0.0px;stroke-linecap:butt;stroke-linejoin:miter;stroke-miterlimit:10;stroke-opacity:1;"/>
<path class="bond-9 atom-9 atom-10" d="M 149.8,219.8 L 137.1,263.1 L 130.3,255.9 L 140.2,222.2 Z" style="fill:#3F4788;fill-rule:evenodd;fill-opacity:1;stroke:#3F4788;stroke-width:0.0px;stroke-linecap:butt;stroke-linejoin:miter;stroke-miterlimit:10;stroke-opacity:1;"/>
<path class="bond-10 atom-10 atom-11" d="M 121.7,190.4 L 149.8,219.8 L 140.2,222.2 L 115.9,196.7 L 117.3,192.0 Z" style="fill:#433B83;fill-rule:evenodd;fill-opacity:1;stroke:#433B83;stroke-width:0.0px;stroke-linecap:butt;stroke-linejoin:miter;stroke-miterlimit:10;stroke-opacity:1;"/>
<path class="bond-11 atom-11 atom-12" d="M 120.4,152.0 L 124.5,154.5 L 121.7,190.4 L 117.3,192.0 L 113.3,188.5 L 115.9,154.7 Z" style="fill:#471265;fill-rule:evenodd;fill-opacity:1;stroke:#471265;stroke-width:0.0px;stroke-linecap:butt;stroke-linejoin:miter;stroke-miterlimit:10;stroke-opacity:1;"/>
<path class="bond-12 atom-12 atom-13" d="M 154.4,126.0 L 154.7,135.9 L 124.5,154.5 L 120.4,152.0 L 120.0,147.2 Z" style="fill:#472878;fill-rule:evenodd;fill-opacity:1;stroke:#472878;stroke-width:0.0px;stroke-linecap:butt;stroke-linejoin:miter;stroke-miterlimit:10;stroke-opacity:1;"/>
<path class="bond-13 atom-13 atom-14" d="M 154.4,126.0 L 189.7,145.0 L 189.8,150.0 L 185.6,152.6 L 154.7,135.9 Z" style="fill:#38578C;fill-rule:evenodd;fill-opacity:1;stroke:#38578C;stroke-width:0.0px;stroke-linecap:butt;stroke-linejoin:miter;stroke-miterlimit:10;stroke-opacity:1;"/>
<path class="bond-14 atom-14 atom-15" d="M 189.8,150.0 L 194.2,152.3 L 195.2,187.5 L 186.8,192.7 L 185.6,152.6 Z" style="fill:#472878;fill-rule:evenodd;fill-opacity:1;stroke:#472878;stroke-width:0.0px;stroke-linecap:butt;stroke-linejoin:miter;stroke-miterlimit:10;stroke-opacity:1;"/>
<path class="bond-31 atom-14 atom-30" d="M 223.8,124.0 L 224.1,133.9 L 194.2,152.3 L 189.8,150.0 L 189.7,145.0 Z" style="fill:#3B518A;fill-rule:evenodd;fill-opacity:1;stroke:#3B518A;stroke-width:0.0px;stroke-linecap:butt;stroke-linejoin:miter;stroke-miterlimit:10;stroke-opacity:1;"/>
<path class="bond-15 atom-15 atom-16" d="M 195.2,187.5 L 226.1,204.2 L 226.4,214.1 L 186.8,192.7 Z" style="fill:#3B518A;fill-rule:evenodd;fill-opacity:1;stroke:#3B518A;stroke-width:0.0px;stroke-linecap:butt;stroke-linejoin:miter;stroke-miterlimit:10;stroke-opacity:1;"/>
<path class="bond-16 atom-16 atom-17" d="M 256.1,185.7 L 260.4,188.1 L 260.6,193.0 L 226.4,214.1 L 226.1,204.2 Z" style="fill:#3D4C89;fill-rule:evenodd;fill-opacity:1;stroke:#3D4C89;stroke-width:0.0px;stroke-linecap:butt;stroke-linejoin:miter;stroke-miterlimit:10;stroke-opacity:1;"/>
<path class="bond-17 atom-17 atom-18" d="M 264.6,185.5 L 295.6,202.2 L 295.7,207.2 L 291.5,209.7 L 260.6,193.0 L 260.4,188.1 Z" style="fill:#471567;fill-rule:evenodd;fill-opacity:1;stroke:#471567;stroke-width:0.0px;stroke-linecap:butt;stroke-linejoin:miter;stroke-miterlimit:10;stroke-opacity:1;"/>
<path class="bond-28 atom-17 atom-29" d="M 263.5,145.4 L 264.6,185.5 L 260.4,188.1 L 256.1,185.7 L 255.1,150.6 Z" style="fill:#471567;fill-rule:evenodd;fill-opacity:1;stroke:#471567;stroke-width:0.0px;stroke-linecap:butt;stroke-linejoin:miter;stroke-miterlimit:10;stroke-opacity:1;"/>
<path class="bond-18 atom-18 atom-19" d="M 295.7,207.2 L 300.1,209.5 L 301.1,244.7 L 292.7,249.8 L 291.5,209.7 Z" style="fill:#45085B;fill-rule:evenodd;fill-opacity:1;stroke:#45085B;stroke-width:0.0px;stroke-linecap:butt;stroke-linejoin:miter;stroke-miterlimit:10;stroke-opacity:1;"/>
<path class="bond-33 atom-18 atom-23" d="M 325.5,183.8 L 329.9,186.1 L 330.0,191.0 L 300.1,209.5 L 295.7,207.2 L 295.6,202.2 Z" style="fill:#440154;fill-rule:evenodd;fill-opacity:1;stroke:#440154;stroke-width:0.0px;stroke-linecap:butt;stroke-linejoin:miter;stroke-miterlimit:10;stroke-opacity:1;"/>
<path class="bond-19 atom-19 atom-20" d="M 301.1,244.7 L 332.0,261.4 L 332.3,271.3 L 292.7,249.8 Z" style="fill:#404487;fill-rule:evenodd;fill-opacity:1;stroke:#404487;stroke-width:0.0px;stroke-linecap:butt;stroke-linejoin:miter;stroke-miterlimit:10;stroke-opacity:1;"/>
<path class="bond-20 atom-20 atom-21" d="M 362.0,242.9 L 370.7,247.6 L 332.3,271.3 L 332.0,261.4 Z" style="fill:#3F4788;fill-rule:evenodd;fill-opacity:1;stroke:#3F4788;stroke-width:0.0px;stroke-linecap:butt;stroke-linejoin:miter;stroke-miterlimit:10;stroke-opacity:1;"/>
<path class="bond-21 atom-21 atom-22" d="M 369.4,202.6 L 370.7,247.6 L 362.0,242.9 L 361.0,207.8 Z" style="fill:#404487;fill-rule:evenodd;fill-opacity:1;stroke:#404487;stroke-width:0.0px;stroke-linecap:butt;stroke-linejoin:miter;stroke-miterlimit:10;stroke-opacity:1;"/>
<path class="bond-22 atom-22 atom-23" d="M 334.1,183.5 L 369.4,202.6 L 361.0,207.8 L 330.0,191.0 L 329.9,186.1 Z" style="fill:#433A83;fill-rule:evenodd;fill-opacity:1;stroke:#433A83;stroke-width:0.0px;stroke-linecap:butt;stroke-linejoin:miter;stroke-miterlimit:10;stroke-opacity:1;"/>
<path class="bond-23 atom-23 atom-24" d="M 328.7,146.0 L 333.1,148.1 L 334.1,183.5 L 329.9,186.1 L 325.5,183.8 L 324.5,148.3 Z" style="fill:#440154;fill-rule:evenodd;fill-opacity:1;stroke:#440154;stroke-width:0.0px;stroke-linecap:butt;stroke-linejoin:miter;stroke-miterlimit:10;stroke-opacity:1;"/>
<path class="bond-24 atom-24 atom-25" d="M 300.6,121.6 L 328.6,140.7 L 328.7,146.0 L 324.5,148.3 L 290.6,125.1 Z" style="fill:#440357;fill-rule:evenodd;fill-opacity:1;stroke:#440357;stroke-width:0.0px;stroke-linecap:butt;stroke-linejoin:miter;stroke-miterlimit:10;stroke-opacity:1;"/>
<path class="bond-34 atom-24 atom-28" d="M 355.4,120.0 L 365.6,123.0 L 333.1,148.1 L 328.7,146.0 L 328.6,140.7 Z" style="fill:#423E85;fill-rule:evenodd;fill-opacity:1;stroke:#423E85;stroke-width:0.0px;stroke-linecap:butt;stroke-linejoin:miter;stroke-miterlimit:10;stroke-opacity:1;"/>
<path class="bond-25 atom-25 atom-26" d="M 303.7,80.7 L 310.2,89.1 L 300.6,121.6 L 290.6,125.1 Z" style="fill:#423E85;fill-rule:evenodd;fill-opacity:1;stroke:#423E85;stroke-width:0.0px;stroke-linecap:butt;stroke-linejoin:miter;stroke-miterlimit:10;stroke-opacity:1;"/>
<path class="bond-26 atom-26 atom-27" d="M 350.0,79.3 L 344.0,88.1 L 310.2,89.1 L 303.7,80.7 Z" style="fill:#404387;fill-rule:evenodd;fill-opacity:1;stroke:#404387;stroke-width:0.0px;stroke-linecap:butt;stroke-linejoin:miter;stroke-miterlimit:10;stroke-opacity:1;"/>
<path class="bond-27 atom-27 atom-28" d="M 350.0,79.3 L 365.6,123.0 L 355.4,120.0 L 344.0,88.1 Z" style="fill:#404387;fill-rule:evenodd;fill-opacity:1;stroke:#404387;stroke-width:0.0px;stroke-linecap:butt;stroke-linejoin:miter;stroke-miterlimit:10;stroke-opacity:1;"/>
<path class="bond-29 atom-29 atom-30" d="M 223.8,124.0 L 263.5,145.4 L 255.1,150.6 L 224.1,133.9 Z" style="fill:#3D4C89;fill-rule:evenodd;fill-opacity:1;stroke:#3D4C89;stroke-width:0.0px;stroke-linecap:butt;stroke-linejoin:miter;stroke-miterlimit:10;stroke-opacity:1;"/>
<ellipse cx="93.4" cy="31.0" rx="8.0" ry="8.0" class="atom-0" style="fill:#FDE724;fill-rule:evenodd;stroke:#FDE724;stroke-width:1.0px;stroke-linecap:butt;stroke-linejoin:miter;stroke-opacity:1"/>
<ellipse cx="102.8" cy="70.0" rx="8.0" ry="8.0" class="atom-1" style="fill:#83D34B;fill-rule:evenodd;stroke:#83D34B;stroke-width:1.0px;stroke-linecap:butt;stroke-linejoin:miter;stroke-opacity:1"/>
<ellipse cx="73.8" cy="97.7" rx="8.0" ry="8.0" class="atom-2" style="fill:#29788E;fill-rule:evenodd;stroke:#29788E;stroke-width:1.0px;stroke-linecap:butt;stroke-linejoin:miter;stroke-opacity:1"/>
<ellipse cx="83.3" cy="136.7" rx="8.0" ry="8.0" class="atom-3" style="fill:#46307D;fill-rule:evenodd;stroke:#46307D;stroke-width:1.0px;stroke-linecap:butt;stroke-linejoin:miter;stroke-opacity:1"/>
<ellipse cx="57.3" cy="167.3" rx="8.0" ry="8.0" class="atom-4" style="fill:#3E4888;fill-rule:evenodd;stroke:#3E4888;stroke-width:1.0px;stroke-linecap:butt;stroke-linejoin:miter;stroke-opacity:1"/>
<ellipse cx="78.3" cy="201.4" rx="8.0" ry="8.0" class="atom-5" style="fill:#481A6C;fill-rule:evenodd;stroke:#481A6C;stroke-width:1.0px;stroke-linecap:butt;stroke-linejoin:miter;stroke-opacity:1"/>
<ellipse cx="67.0" cy="239.9" rx="8.0" ry="8.0" class="atom-6" style="fill:#481D6F;fill-rule:evenodd;stroke:#481D6F;stroke-width:1.0px;stroke-linecap:butt;stroke-linejoin:miter;stroke-opacity:1"/>
<ellipse cx="28.0" cy="249.4" rx="8.0" ry="8.0" class="atom-7" style="fill:#218C8D;fill-rule:evenodd;stroke:#218C8D;stroke-width:1.0px;stroke-linecap:butt;stroke-linejoin:miter;stroke-opacity:1"/>
<ellipse cx="94.7" cy="269.0" rx="8.0" ry="8.0" class="atom-8" style="fill:#3E4989;fill-rule:evenodd;stroke:#3E4989;stroke-width:1.0px;stroke-linecap:butt;stroke-linejoin:miter;stroke-opacity:1"/>
<ellipse cx="133.7" cy="259.5" rx="8.0" ry="8.0" class="atom-9" style="fill:#3F4788;fill-rule:evenodd;stroke:#3F4788;stroke-width:1.0px;stroke-linecap:butt;stroke-linejoin:miter;stroke-opacity:1"/>
<ellipse cx="145.0" cy="221.0" rx="8.0" ry="8.0" class="atom-10" style="fill:#433B83;fill-rule:evenodd;stroke:#433B83;stroke-width:1.0px;stroke-linecap:butt;stroke-linejoin:miter;stroke-opacity:1"/>
<ellipse cx="117.3" cy="192.0" rx="8.0" ry="8.0" class="atom-11" style="fill:#471265;fill-rule:evenodd;stroke:#471265;stroke-width:1.0px;stroke-linecap:butt;stroke-linejoin:miter;stroke-opacity:1"/>
<ellipse cx="120.4" cy="152.0" rx="8.0" ry="8.0" class="atom-12" style="fill:#472878;fill-rule:evenodd;stroke:#472878;stroke-width:1.0px;stroke-linecap:butt;stroke-linejoin:miter;stroke-opacity:1"/>
<ellipse cx="154.5" cy="130.9" rx="8.0" ry="8.0" class="atom-13" style="fill:#38578C;fill-rule:evenodd;stroke:#38578C;stroke-width:1.0px;stroke-linecap:butt;stroke-linejoin:miter;stroke-opacity:1"/>
<ellipse cx="189.8" cy="150.0" rx="8.0" ry="8.0" class="atom-14" style="fill:#472878;fill-rule:evenodd;stroke:#472878;stroke-width:1.0px;stroke-linecap:butt;stroke-linejoin:miter;stroke-opacity:1"/>
<ellipse cx="191.0" cy="190.1" rx="8.0" ry="8.0" class="atom-15" style="fill:#3B518A;fill-rule:evenodd;stroke:#3B518A;stroke-width:1.0px;stroke-linecap:butt;stroke-linejoin:miter;stroke-opacity:1"/>
<ellipse cx="226.3" cy="209.1" rx="8.0" ry="8.0" class="atom-16" style="fill:#3D4C89;fill-rule:evenodd;stroke:#3D4C89;stroke-width:1.0px;stroke-linecap:butt;stroke-linejoin:miter;stroke-opacity:1"/>
<ellipse cx="260.4" cy="188.1" rx="8.0" ry="8.0" class="atom-17" style="fill:#471567;fill-rule:evenodd;stroke:#471567;stroke-width:1.0px;stroke-linecap:butt;stroke-linejoin:miter;stroke-opacity:1"/>
<ellipse cx="295.7" cy="207.2" rx="8.0" ry="8.0" class="atom-18" style="fill:#45085B;fill-rule:evenodd;stroke:#45085B;stroke-width:1.0px;stroke-linecap:butt;stroke-linejoin:miter;stroke-opacity:1"/>
<ellipse cx="296.9" cy="247.3" rx="8.0" ry="8.0" class="atom-19" style="fill:#404487;fill-rule:evenodd;stroke:#404487;stroke-width:1.0px;stroke-linecap:butt;stroke-linejoin:miter;stroke-opacity:1"/>
<ellipse cx="332.2" cy="266.3" rx="8.0" ry="8.0" class="atom-20" style="fill:#3F4788;fill-rule:evenodd;stroke:#3F4788;stroke-width:1.0px;stroke-linecap:butt;stroke-linejoin:miter;stroke-opacity:1"/>
<ellipse cx="366.3" cy="245.3" rx="8.0" ry="8.0" class="atom-21" style="fill:#404487;fill-rule:evenodd;stroke:#404487;stroke-width:1.0px;stroke-linecap:butt;stroke-linejoin:miter;stroke-opacity:1"/>
<ellipse cx="365.2" cy="205.2" rx="8.0" ry="8.0" class="atom-22" style="fill:#433A83;fill-rule:evenodd;stroke:#433A83;stroke-width:1.0px;stroke-linecap:butt;stroke-linejoin:miter;stroke-opacity:1"/>
<ellipse cx="329.9" cy="186.1" rx="8.0" ry="8.0" class="atom-23" style="fill:#440154;fill-rule:evenodd;stroke:#440154;stroke-width:1.0px;stroke-linecap:butt;stroke-linejoin:miter;stroke-opacity:1"/>
<ellipse cx="328.7" cy="146.0" rx="8.0" ry="8.0" class="atom-24" style="fill:#440357;fill-rule:evenodd;stroke:#440357;stroke-width:1.0px;stroke-linecap:butt;stroke-linejoin:miter;stroke-opacity:1"/>
<ellipse cx="295.6" cy="123.4" rx="8.0" ry="8.0" class="atom-25" style="fill:#423E85;fill-rule:evenodd;stroke:#423E85;stroke-width:1.0px;stroke-linecap:butt;stroke-linejoin:miter;stroke-opacity:1"/>
<ellipse cx="306.9" cy="84.9" rx="8.0" ry="8.0" class="atom-26" style="fill:#404387;fill-rule:evenodd;stroke:#404387;stroke-width:1.0px;stroke-linecap:butt;stroke-linejoin:miter;stroke-opacity:1"/>
<ellipse cx="347.0" cy="83.7" rx="8.0" ry="8.0" class="atom-27" style="fill:#404387;fill-rule:evenodd;stroke:#404387;stroke-width:1.0px;stroke-linecap:butt;stroke-linejoin:miter;stroke-opacity:1"/>
<ellipse cx="366.1" cy="121.5" rx="13.9" ry="8.0" class="atom-28" style="fill:#423E85;fill-rule:evenodd;stroke:#423E85;stroke-width:1.0px;stroke-linecap:butt;stroke-linejoin:miter;stroke-opacity:1"/>
<ellipse cx="259.3" cy="148.0" rx="8.0" ry="8.0" class="atom-29" style="fill:#3D4C89;fill-rule:evenodd;stroke:#3D4C89;stroke-width:1.0px;stroke-linecap:butt;stroke-linejoin:miter;stroke-opacity:1"/>
<ellipse cx="224.0" cy="128.9" rx="8.0" ry="8.0" class="atom-30" style="fill:#3B518A;fill-rule:evenodd;stroke:#3B518A;stroke-width:1.0px;stroke-linecap:butt;stroke-linejoin:miter;stroke-opacity:1"/>
<path class="bond-0 atom-0 atom-1" d="M 93.4,31.0 L 102.8,70.0" style="fill:none;fill-rule:evenodd;stroke:#000000;stroke-width:2.0px;stroke-linecap:butt;stroke-linejoin:miter;stroke-opacity:1"/>
<path class="bond-1 atom-1 atom-2" d="M 102.8,70.0 L 73.8,97.7" style="fill:none;fill-rule:evenodd;stroke:#000000;stroke-width:2.0px;stroke-linecap:butt;stroke-linejoin:miter;stroke-opacity:1"/>
<path class="bond-2 atom-2 atom-3" d="M 73.8,97.7 L 83.3,136.7" style="fill:none;fill-rule:evenodd;stroke:#000000;stroke-width:2.0px;stroke-linecap:butt;stroke-linejoin:miter;stroke-opacity:1"/>
<path class="bond-3 atom-3 atom-4" d="M 83.3,136.7 L 62.9,160.6" style="fill:none;fill-rule:evenodd;stroke:#000000;stroke-width:2.0px;stroke-linecap:butt;stroke-linejoin:miter;stroke-opacity:1"/>
<path class="bond-3 atom-3 atom-4" d="M 85.0,143.9 L 67.5,164.5" style="fill:none;fill-rule:evenodd;stroke:#000000;stroke-width:2.0px;stroke-linecap:butt;stroke-linejoin:miter;stroke-opacity:1"/>
<path class="bond-4 atom-4 atom-5" d="M 61.6,174.3 L 78.3,201.4" style="fill:none;fill-rule:evenodd;stroke:#000000;stroke-width:2.0px;stroke-linecap:butt;stroke-linejoin:miter;stroke-opacity:1"/>
<path class="bond-5 atom-5 atom-6" d="M 78.3,201.4 L 67.0,239.9" style="fill:none;fill-rule:evenodd;stroke:#000000;stroke-width:2.0px;stroke-linecap:butt;stroke-linejoin:miter;stroke-opacity:1"/>
<path class="bond-5 atom-5 atom-6" d="M 83.1,206.5 L 73.8,238.3" style="fill:none;fill-rule:evenodd;stroke:#000000;stroke-width:2.0px;stroke-linecap:butt;stroke-linejoin:miter;stroke-opacity:1"/>
<path class="bond-6 atom-6 atom-7" d="M 67.0,239.9 L 28.0,249.4" style="fill:none;fill-rule:evenodd;stroke:#000000;stroke-width:2.0px;stroke-linecap:butt;stroke-linejoin:miter;stroke-opacity:1"/>
<path class="bond-7 atom-6 atom-8" d="M 67.0,239.9 L 94.7,269.0" style="fill:none;fill-rule:evenodd;stroke:#000000;stroke-width:2.0px;stroke-linecap:butt;stroke-linejoin:miter;stroke-opacity:1"/>
<path class="bond-8 atom-8 atom-9" d="M 94.7,269.0 L 133.7,259.5" style="fill:none;fill-rule:evenodd;stroke:#000000;stroke-width:2.0px;stroke-linecap:butt;stroke-linejoin:miter;stroke-opacity:1"/>
<path class="bond-8 atom-8 atom-9" d="M 96.7,262.3 L 128.9,254.5" style="fill:none;fill-rule:evenodd;stroke:#000000;stroke-width:2.0px;stroke-linecap:butt;stroke-linejoin:miter;stroke-opacity:1"/>
<path class="bond-9 atom-9 atom-10" d="M 133.7,259.5 L 142.9,228.0" style="fill:none;fill-rule:evenodd;stroke:#000000;stroke-width:2.0px;stroke-linecap:butt;stroke-linejoin:miter;stroke-opacity:1"/>
<path class="bond-10 atom-10 atom-11" d="M 139.4,215.1 L 117.3,192.0" style="fill:none;fill-rule:evenodd;stroke:#000000;stroke-width:2.0px;stroke-linecap:butt;stroke-linejoin:miter;stroke-opacity:1"/>
<path class="bond-10 atom-10 atom-11" d="M 135.0,219.3 L 115.3,198.6" style="fill:none;fill-rule:evenodd;stroke:#000000;stroke-width:2.0px;stroke-linecap:butt;stroke-linejoin:miter;stroke-opacity:1"/>
<path class="bond-11 atom-11 atom-12" d="M 117.3,192.0 L 119.8,159.0" style="fill:none;fill-rule:evenodd;stroke:#000000;stroke-width:2.0px;stroke-linecap:butt;stroke-linejoin:miter;stroke-opacity:1"/>
<path class="bond-12 atom-12 atom-13" d="M 126.0,148.5 L 154.5,130.9" style="fill:none;fill-rule:evenodd;stroke:#000000;stroke-width:2.0px;stroke-linecap:butt;stroke-linejoin:miter;stroke-opacity:1"/>
<path class="bond-13 atom-13 atom-14" d="M 154.5,130.9 L 189.8,150.0" style="fill:none;fill-rule:evenodd;stroke:#000000;stroke-width:2.0px;stroke-linecap:butt;stroke-linejoin:miter;stroke-opacity:1"/>
<path class="bond-14 atom-14 atom-15" d="M 189.8,150.0 L 191.0,190.1" style="fill:none;fill-rule:evenodd;stroke:#000000;stroke-width:2.0px;stroke-linecap:butt;stroke-linejoin:miter;stroke-opacity:1"/>
<path class="bond-14 atom-14 atom-15" d="M 195.9,153.3 L 196.9,186.4" style="fill:none;fill-rule:evenodd;stroke:#000000;stroke-width:2.0px;stroke-linecap:butt;stroke-linejoin:miter;stroke-opacity:1"/>
<path class="bond-15 atom-15 atom-16" d="M 191.0,190.1 L 226.3,209.1" style="fill:none;fill-rule:evenodd;stroke:#000000;stroke-width:2.0px;stroke-linecap:butt;stroke-linejoin:miter;stroke-opacity:1"/>
<path class="bond-16 atom-16 atom-17" d="M 226.3,209.1 L 260.4,188.1" style="fill:none;fill-rule:evenodd;stroke:#000000;stroke-width:2.0px;stroke-linecap:butt;stroke-linejoin:miter;stroke-opacity:1"/>
<path class="bond-16 atom-16 atom-17" d="M 226.1,202.2 L 254.3,184.8" style="fill:none;fill-rule:evenodd;stroke:#000000;stroke-width:2.0px;stroke-linecap:butt;stroke-linejoin:miter;stroke-opacity:1"/>
<path class="bond-17 atom-17 atom-18" d="M 260.4,188.1 L 295.7,207.2" style="fill:none;fill-rule:evenodd;stroke:#000000;stroke-width:2.0px;stroke-linecap:butt;stroke-linejoin:miter;stroke-opacity:1"/>
<path class="bond-18 atom-18 atom-19" d="M 295.7,207.2 L 296.9,247.3" style="fill:none;fill-rule:evenodd;stroke:#000000;stroke-width:2.0px;stroke-linecap:butt;stroke-linejoin:miter;stroke-opacity:1"/>
<path class="bond-18 atom-18 atom-19" d="M 301.8,210.5 L 302.8,243.6" style="fill:none;fill-rule:evenodd;stroke:#000000;stroke-width:2.0px;stroke-linecap:butt;stroke-linejoin:miter;stroke-opacity:1"/>
<path class="bond-19 atom-19 atom-20" d="M 296.9,247.3 L 332.2,266.3" style="fill:none;fill-rule:evenodd;stroke:#000000;stroke-width:2.0px;stroke-linecap:butt;stroke-linejoin:miter;stroke-opacity:1"/>
<path class="bond-20 atom-20 atom-21" d="M 332.2,266.3 L 360.7,248.7" style="fill:none;fill-rule:evenodd;stroke:#000000;stroke-width:2.0px;stroke-linecap:butt;stroke-linejoin:miter;stroke-opacity:1"/>
<path class="bond-20 atom-20 atom-21" d="M 332.0,259.4 L 357.5,243.6" style="fill:none;fill-rule:evenodd;stroke:#000000;stroke-width:2.0px;stroke-linecap:butt;stroke-linejoin:miter;stroke-opacity:1"/>
<path class="bond-21 atom-21 atom-22" d="M 366.1,238.3 L 365.2,205.2" style="fill:none;fill-rule:evenodd;stroke:#000000;stroke-width:2.0px;stroke-linecap:butt;stroke-linejoin:miter;stroke-opacity:1"/>
<path class="bond-22 atom-22 atom-23" d="M 365.2,205.2 L 329.9,186.1" style="fill:none;fill-rule:evenodd;stroke:#000000;stroke-width:2.0px;stroke-linecap:butt;stroke-linejoin:miter;stroke-opacity:1"/>
<path class="bond-22 atom-22 atom-23" d="M 359.3,208.8 L 330.1,193.1" style="fill:none;fill-rule:evenodd;stroke:#000000;stroke-width:2.0px;stroke-linecap:butt;stroke-linejoin:miter;stroke-opacity:1"/>
<path class="bond-23 atom-23 atom-24" d="M 329.9,186.1 L 328.7,146.0" style="fill:none;fill-rule:evenodd;stroke:#000000;stroke-width:2.0px;stroke-linecap:butt;stroke-linejoin:miter;stroke-opacity:1"/>
<path class="bond-24 atom-24 atom-25" d="M 328.7,146.0 L 301.3,127.2" style="fill:none;fill-rule:evenodd;stroke:#000000;stroke-width:2.0px;stroke-linecap:butt;stroke-linejoin:miter;stroke-opacity:1"/>
<path class="bond-24 atom-24 atom-25" d="M 328.5,138.6 L 304.6,122.2" style="fill:none;fill-rule:evenodd;stroke:#000000;stroke-width:2.0px;stroke-linecap:butt;stroke-linejoin:miter;stroke-opacity:1"/>
<path class="bond-25 atom-25 atom-26" d="M 297.7,116.4 L 304.9,91.9" style="fill:none;fill-rule:evenodd;stroke:#000000;stroke-width:2.0px;stroke-linecap:butt;stroke-linejoin:miter;stroke-opacity:1"/>
<path class="bond-26 atom-26 atom-27" d="M 312.6,84.7 L 341.4,83.9" style="fill:none;fill-rule:evenodd;stroke:#000000;stroke-width:2.0px;stroke-linecap:butt;stroke-linejoin:miter;stroke-opacity:1"/>
<path class="bond-26 atom-26 atom-27" d="M 312.7,90.7 L 341.6,89.9" style="fill:none;fill-rule:evenodd;stroke:#000000;stroke-width:2.0px;stroke-linecap:butt;stroke-linejoin:miter;stroke-opacity:1"/>
<path class="bond-27 atom-27 atom-28" d="M 349.5,90.7 L 358.0,114.5" style="fill:none;fill-rule:evenodd;stroke:#000000;stroke-width:2.0px;stroke-linecap:butt;stroke-linejoin:miter;stroke-opacity:1"/>
<path class="bond-28 atom-17 atom-29" d="M 260.4,188.1 L 259.3,148.0" style="fill:none;fill-rule:evenodd;stroke:#000000;stroke-width:2.0px;stroke-linecap:butt;stroke-linejoin:miter;stroke-opacity:1"/>
<path class="bond-29 atom-29 atom-30" d="M 259.3,148.0 L 224.0,128.9" style="fill:none;fill-rule:evenodd;stroke:#000000;stroke-width:2.0px;stroke-linecap:butt;stroke-linejoin:miter;stroke-opacity:1"/>
<path class="bond-29 atom-29 atom-30" d="M 253.4,151.6 L 224.2,135.9" style="fill:none;fill-rule:evenodd;stroke:#000000;stroke-width:2.0px;stroke-linecap:butt;stroke-linejoin:miter;stroke-opacity:1"/>
<path class="bond-30 atom-12 atom-3" d="M 114.7,149.6 L 83.3,136.7" style="fill:none;fill-rule:evenodd;stroke:#000000;stroke-width:2.0px;stroke-linecap:butt;stroke-linejoin:miter;stroke-opacity:1"/>
<path class="bond-31 atom-30 atom-14" d="M 224.0,128.9 L 189.8,150.0" style="fill:none;fill-rule:evenodd;stroke:#000000;stroke-width:2.0px;stroke-linecap:butt;stroke-linejoin:miter;stroke-opacity:1"/>
<path class="bond-32 atom-11 atom-5" d="M 117.3,192.0 L 78.3,201.4" style="fill:none;fill-rule:evenodd;stroke:#000000;stroke-width:2.0px;stroke-linecap:butt;stroke-linejoin:miter;stroke-opacity:1"/>
<path class="bond-33 atom-23 atom-18" d="M 329.9,186.1 L 295.7,207.2" style="fill:none;fill-rule:evenodd;stroke:#000000;stroke-width:2.0px;stroke-linecap:butt;stroke-linejoin:miter;stroke-opacity:1"/>
<path class="bond-34 atom-28 atom-24" d="M 354.9,125.8 L 328.7,146.0" style="fill:none;fill-rule:evenodd;stroke:#000000;stroke-width:2.0px;stroke-linecap:butt;stroke-linejoin:miter;stroke-opacity:1"/>
<path d="M 102.4,68.1 L 102.8,70.0 L 101.4,71.4" style="fill:none;stroke:#000000;stroke-width:2.0px;stroke-linecap:butt;stroke-linejoin:miter;stroke-miterlimit:10;stroke-opacity:1;"/>
<path d="M 75.2,96.3 L 73.8,97.7 L 74.3,99.7" style="fill:none;stroke:#000000;stroke-width:2.0px;stroke-linecap:butt;stroke-linejoin:miter;stroke-miterlimit:10;stroke-opacity:1;"/>
<path d="M 93.3,267.5 L 94.7,269.0 L 96.6,268.5" style="fill:none;stroke:#000000;stroke-width:2.0px;stroke-linecap:butt;stroke-linejoin:miter;stroke-miterlimit:10;stroke-opacity:1;"/>
<path d="M 131.7,260.0 L 133.7,259.5 L 134.2,257.9" style="fill:none;stroke:#000000;stroke-width:2.0px;stroke-linecap:butt;stroke-linejoin:miter;stroke-miterlimit:10;stroke-opacity:1;"/>
<path d="M 153.1,131.8 L 154.5,130.9 L 156.3,131.9" style="fill:none;stroke:#000000;stroke-width:2.0px;stroke-linecap:butt;stroke-linejoin:miter;stroke-miterlimit:10;stroke-opacity:1;"/>
<path d="M 190.9,188.1 L 191.0,190.1 L 192.7,191.0" style="fill:none;stroke:#000000;stroke-width:2.0px;stroke-linecap:butt;stroke-linejoin:miter;stroke-miterlimit:10;stroke-opacity:1;"/>
<path d="M 224.5,208.2 L 226.3,209.1 L 228.0,208.1" style="fill:none;stroke:#000000;stroke-width:2.0px;stroke-linecap:butt;stroke-linejoin:miter;stroke-miterlimit:10;stroke-opacity:1;"/>
<path d="M 296.8,245.3 L 296.9,247.3 L 298.6,248.2" style="fill:none;stroke:#000000;stroke-width:2.0px;stroke-linecap:butt;stroke-linejoin:miter;stroke-miterlimit:10;stroke-opacity:1;"/>
<path d="M 330.4,265.4 L 332.2,266.3 L 333.6,265.4" style="fill:none;stroke:#000000;stroke-width:2.0px;stroke-linecap:butt;stroke-linejoin:miter;stroke-miterlimit:10;stroke-opacity:1;"/>
<path d="M 365.2,206.8 L 365.2,205.2 L 363.4,204.2" style="fill:none;stroke:#000000;stroke-width:2.0px;stroke-linecap:butt;stroke-linejoin:miter;stroke-miterlimit:10;stroke-opacity:1;"/>
<path d="M 259.3,150.0 L 259.3,148.0 L 257.5,147.0" style="fill:none;stroke:#000000;stroke-width:2.0px;stroke-linecap:butt;stroke-linejoin:miter;stroke-miterlimit:10;stroke-opacity:1;"/>
<path d="M 225.7,129.9 L 224.0,128.9 L 222.3,130.0" style="fill:none;stroke:#000000;stroke-width:2.0px;stroke-linecap:butt;stroke-linejoin:miter;stroke-miterlimit:10;stroke-opacity:1;"/>
<path class="atom-4" d="M 54.8 161.6 L 58.5 167.6 Q 58.8 168.2, 59.4 169.3 Q 60.0 170.4, 60.1 170.4 L 60.1 161.6 L 61.6 161.6 L 61.6 173.0 L 60.0 173.0 L 56.0 166.4 Q 55.6 165.6, 55.1 164.7 Q 54.6 163.8, 54.4 163.6 L 54.4 173.0 L 53.0 173.0 L 53.0 161.6 L 54.8 161.6 " fill="#000000"/>
<path class="atom-10" d="M 142.5 215.3 L 146.2 221.3 Q 146.6 221.9, 147.2 223.0 Q 147.8 224.1, 147.8 224.2 L 147.8 215.3 L 149.3 215.3 L 149.3 226.7 L 147.7 226.7 L 143.7 220.1 Q 143.3 219.3, 142.8 218.5 Q 142.3 217.6, 142.2 217.3 L 142.2 226.7 L 140.7 226.7 L 140.7 215.3 L 142.5 215.3 " fill="#000000"/>
<path class="atom-12" d="M 117.8 146.3 L 121.6 152.3 Q 121.9 152.9, 122.5 154.0 Q 123.1 155.0, 123.2 155.1 L 123.2 146.3 L 124.7 146.3 L 124.7 157.6 L 123.1 157.6 L 119.1 151.1 Q 118.6 150.3, 118.1 149.4 Q 117.7 148.5, 117.5 148.3 L 117.5 157.6 L 116.0 157.6 L 116.0 146.3 L 117.8 146.3 " fill="#000000"/>
<path class="atom-21" d="M 363.8 239.6 L 367.6 245.6 Q 367.9 246.2, 368.5 247.3 Q 369.1 248.4, 369.1 248.4 L 369.1 239.6 L 370.6 239.6 L 370.6 251.0 L 369.1 251.0 L 365.1 244.4 Q 364.6 243.6, 364.1 242.7 Q 363.7 241.8, 363.5 241.6 L 363.5 251.0 L 362.0 251.0 L 362.0 239.6 L 363.8 239.6 " fill="#000000"/>
<path class="atom-25" d="M 293.1 117.7 L 296.8 123.7 Q 297.2 124.3, 297.8 125.4 Q 298.4 126.4, 298.4 126.5 L 298.4 117.7 L 299.9 117.7 L 299.9 129.0 L 298.4 129.0 L 294.4 122.5 Q 293.9 121.7, 293.4 120.8 Q 292.9 119.9, 292.8 119.7 L 292.8 129.0 L 291.3 129.0 L 291.3 117.7 L 293.1 117.7 " fill="#000000"/>
<path class="atom-26" d="M 304.4 79.2 L 308.1 85.2 Q 308.5 85.8, 309.1 86.9 Q 309.7 87.9, 309.7 88.0 L 309.7 79.2 L 311.2 79.2 L 311.2 90.5 L 309.7 90.5 L 305.7 84.0 Q 305.2 83.2, 304.7 82.3 Q 304.2 81.4, 304.1 81.2 L 304.1 90.5 L 302.6 90.5 L 302.6 79.2 L 304.4 79.2 " fill="#000000"/>
<path class="atom-27" d="M 344.5 78.0 L 348.2 84.1 Q 348.6 84.6, 349.2 85.7 Q 349.8 86.8, 349.8 86.9 L 349.8 78.0 L 351.3 78.0 L 351.3 89.4 L 349.8 89.4 L 345.8 82.8 Q 345.3 82.0, 344.8 81.2 Q 344.3 80.3, 344.2 80.0 L 344.2 89.4 L 342.7 89.4 L 342.7 78.0 L 344.5 78.0 " fill="#000000"/>
<path class="atom-28" d="M 358.0 115.8 L 361.7 121.8 Q 362.1 122.4, 362.7 123.5 Q 363.3 124.6, 363.3 124.6 L 363.3 115.8 L 364.8 115.8 L 364.8 127.2 L 363.3 127.2 L 359.3 120.6 Q 358.8 119.8, 358.3 119.0 Q 357.8 118.1, 357.7 117.8 L 357.7 127.2 L 356.2 127.2 L 356.2 115.8 L 358.0 115.8 " fill="#000000"/>
<path class="atom-28" d="M 367.0 115.8 L 368.6 115.8 L 368.6 120.7 L 374.4 120.7 L 374.4 115.8 L 375.9 115.8 L 375.9 127.2 L 374.4 127.2 L 374.4 121.9 L 368.6 121.9 L 368.6 127.2 L 367.0 127.2 L 367.0 115.8 " fill="#000000"/>
</svg>